<svg xmlns="http://www.w3.org/2000/svg" viewBox="0 0 1366 768"><defs><style>.cls-1{fill:#082327;}.cls-2{font-size:183.93px;font-family:Morton-Medium, Morton;font-weight:500;}.cls-2,.cls-7{fill:#fff;}.cls-3{letter-spacing:-0.02em;}.cls-4,.cls-5,.cls-6{font-family:Morton-ExtraBold, Morton;font-weight:800;}.cls-4{letter-spacing:-0.24em;}.cls-5{letter-spacing:-0.01em;}.cls-8{fill:#00a9a5;}</style></defs><g id="Logo_1" data-name="Logo 1"><rect id="BACKGROUND_1" data-name="BACKGROUND 1" class="cls-1" width="1366" height="768"/><g id="TEXT_1" data-name="TEXT 1"><text class="cls-2" transform="translate(133.24 426.54)">M<tspan class="cls-3" x="137.21" y="0">E</tspan><tspan x="222.92" y="0">ET</tspan><tspan class="cls-4" x="397.28" y="0"> </tspan><tspan class="cls-5" x="406.66" y="0">O</tspan><tspan class="cls-6" x="513.89" y="0">N</tspan></text></g><circle id="OUTER_CIRCLE_1" data-name="OUTER CIRCLE 1" class="cls-7" cx="1026.03" cy="348.82" r="220.82"/><circle id="Inner_Circle_1" data-name="Inner Circle 1" class="cls-8" cx="1030" cy="277" r="35"/><g id="V_Shape_1" data-name="V Shape 1"><path class="cls-8" d="M960.19,231.64A5.52,5.52,0,0,0,955,228.2H869.1c-3.44,0-5.16.58-5.16,1.72q0,1.29,2.58,6,28.92,55.38,60.22,113.58l104.65,35.94C1027.12,376.31,969.57,252.9,960.19,231.64Zm-18.83,145q38.46,71,80.39,146.15,3,5.16,6.45,5.16,4.29,0,7.31-6L1085.25,426Zm239.49-148.4h-80.34q-3,0-4.73,3.44l-64,154L1095,407.3l88.9-171.36q2.58-4.73,2.58-6C1186.44,228.78,1184.57,228.2,1180.85,228.2Z"/></g></g></svg>