<svg xmlns="http://www.w3.org/2000/svg" viewBox="0 0 1366 768"><defs><style>.cls-1,.cls-2{fill:#082327;}.cls-2{font-size:183.93px;font-family:Morton-Medium, Morton;font-weight:500;}.cls-3{letter-spacing:-0.02em;}.cls-4,.cls-5,.cls-6{font-family:Morton-ExtraBold, Morton;font-weight:800;}.cls-4{letter-spacing:-0.24em;}.cls-5{letter-spacing:-0.01em;}.cls-7{fill:#fff;}</style></defs><g id="Logo_2" data-name="Logo 2"><circle id="OUTER_CIRCLE_2" data-name="OUTER CIRCLE 2" class="cls-1" cx="1019.01" cy="348.61" r="220.82"/><text id="TEXT_2" data-name="TEXT 2" class="cls-2" transform="translate(126.78 427.22)">M<tspan class="cls-3" x="137.21" y="0">E</tspan><tspan x="222.92" y="0">ET</tspan><tspan class="cls-4" x="397.28" y="0"> </tspan><tspan class="cls-5" x="406.66" y="0">O</tspan><tspan class="cls-6" x="513.89" y="0">N</tspan></text><circle id="CIRCLE_2" data-name="CIRCLE 2" class="cls-7" cx="1025" cy="277" r="35"/><g id="V_shape_2" data-name="V shape 2"><path class="cls-7" d="M1175.85,228l-80.34-2q-3,0-4.73,3.44l-64,154.3,63.94,22,88.17-170q2.58-4.73,2.58-6C1181.44,228.58,1179.57,228,1175.85,228Zm-159.1,294.55q3,5.16,6.45,5.16,4.29,0,7.31-6L1081,424.42,935.26,374.37Q974.22,446.34,1016.75,522.55ZM955.19,231.44A5.52,5.52,0,0,0,950,228H864.1c-3.44,0-5.16.58-5.16,1.72q0,1.29,2.58,6,28.41,54.42,59.14,111.56l105.81,36.34C1022.89,376.07,964.63,252.84,955.19,231.44Z"/></g></g></svg>