<svg width="250" height="54" viewBox="0 0 250 54" fill="none" xmlns="http://www.w3.org/2000/svg">
<path d="M66.4003 29.2667C66.3965 29.3395 66.3965 29.4124 66.4003 29.4852C66.4003 29.5996 66.4003 29.7608 66.4003 30.0053C66.4003 30.2498 66.4003 30.5255 66.3639 30.926C66.3639 31.519 66.3327 32.2056 66.3223 32.965C66.3119 33.7244 66.3223 34.437 66.3223 35.1653V37.5944C66.8424 37.5944 67.3626 37.558 67.8463 37.5112C68.42 37.4564 68.9854 37.336 69.5316 37.1523C70.002 37.0156 70.4454 36.7992 70.8424 36.5125C71.1843 36.2683 71.4802 35.9654 71.7163 35.6178C71.9489 35.2868 72.1247 34.9194 72.2364 34.5307C72.3477 34.1275 72.4037 33.711 72.4029 33.2927C72.4137 32.5575 72.2113 31.8348 71.8203 31.2121C71.3926 30.5763 70.7965 30.072 70.0986 29.7556C69.7133 29.5804 69.308 29.4529 68.8918 29.3759C68.4425 29.2916 67.9862 29.2498 67.529 29.2511C67.1805 29.2511 66.8945 29.2511 66.676 29.2771H66.4783L66.4003 29.2667ZM74.4887 47.5398L74.3691 47.4201C74.2026 47.2537 74.0882 47.134 74.0154 47.0508C73.9426 46.9676 73.8593 46.874 73.7709 46.7699C73.6424 46.604 73.5243 46.4303 73.4172 46.2498C73.2924 46.0625 73.0947 45.7712 72.8138 45.3655C72.5329 44.9598 72.1896 44.4344 71.94 44.0443C71.6903 43.6542 71.4198 43.2745 71.1805 42.8948C70.9413 42.5151 70.6604 42.1457 70.3483 41.766C70.0362 41.3863 69.6929 40.9442 69.308 40.4708C68.9737 40.088 68.6121 39.7299 68.226 39.3993C67.916 39.1227 67.5397 38.931 67.1337 38.8428C66.9118 38.7904 66.6854 38.7591 66.4575 38.7491H66.2807V41.2407C66.2807 42.0677 66.2807 42.7699 66.2807 43.3213C66.2807 43.8727 66.3119 44.3616 66.3327 44.7465C66.3304 45.018 66.4042 45.2847 66.5459 45.5164V45.5164C66.7248 45.7367 66.9504 45.9144 67.2065 46.0365C67.6623 46.2629 68.1645 46.3805 68.6734 46.3798H69.0739V47.5398H59.9504V46.4994L60.3041 46.4422C60.7023 46.3785 61.0939 46.2793 61.4744 46.1457C61.7665 46.0593 62.0268 45.8894 62.2235 45.6568C62.2841 45.5633 62.3265 45.4592 62.3483 45.3499C62.3998 45.1397 62.4345 44.9258 62.4523 44.7101C62.4783 44.4604 62.4991 44.19 62.5199 43.8987C62.5407 43.6074 62.5199 43.3317 62.5199 43.0664C62.5199 42.8011 62.5199 42.4734 62.5199 42.0729C62.5199 41.6724 62.5199 41.2043 62.5199 40.7101C62.5199 40.216 62.5199 39.7062 62.5199 39.2017V32.6477C62.5199 32.346 62.5199 32.0339 62.5199 31.7114C62.5199 31.3993 62.5199 31.1029 62.4679 30.8324C62.4496 30.5921 62.4113 30.3537 62.3535 30.1198C62.3322 30.0045 62.2841 29.8958 62.2131 29.8025V29.8025C62.0275 29.5967 61.7905 29.4441 61.5264 29.3603C61.1575 29.2577 60.7822 29.1795 60.4029 29.1263L60.0492 29.0742V28.0339H61.5264H63.5238H65.7605H67.6175C68.7774 28.0339 69.8281 28.0703 70.7384 28.1432C71.6587 28.2046 72.5556 28.4598 73.3704 28.8922C74.1697 29.302 74.8543 29.9045 75.3626 30.6451C75.8984 31.4835 76.1668 32.4648 76.1324 33.4592C76.1418 34.114 76.0105 34.7632 75.7475 35.3629C75.489 35.9104 75.137 36.4086 74.7072 36.835C74.2747 37.2613 73.7823 37.6223 73.2456 37.9065C72.9179 38.0781 72.5798 38.2342 72.2364 38.3746C72.3555 38.4771 72.4684 38.5865 72.5745 38.7023C72.8783 39.0299 73.1598 39.3775 73.4172 39.7426C73.8749 40.4136 74.3691 41.1262 74.884 41.8753C75.399 42.6243 75.8775 43.3005 76.2937 43.8935C76.7715 44.6113 77.3677 45.2427 78.057 45.7608C78.6442 46.1528 79.3131 46.4054 80.0128 46.4994L80.3665 46.5515V47.5918L74.4887 47.5398Z" fill="#164E63"/>
<path d="M72.096 30.9624C71.628 30.2566 70.9698 29.6976 70.1975 29.3499C69.7809 29.1595 69.3424 29.0214 68.8919 28.939C68.4168 28.8503 67.9343 28.8067 67.451 28.809C67.0869 28.809 66.7956 28.809 66.5668 28.809C66.3379 28.809 66.1663 28.8402 66.0466 28.861C66.0466 28.9598 66.0154 29.0534 65.9946 29.1315C65.9773 29.2296 65.9652 29.3286 65.9582 29.428C65.9582 29.5528 65.9582 29.7192 65.9582 29.9481C65.9582 30.177 65.9582 30.4683 65.9218 30.8688C65.9218 31.4722 65.8906 32.1588 65.8802 32.9182C65.8698 33.6776 65.8802 34.411 65.8802 35.1237V37.9689C66.5436 37.9728 67.2067 37.9433 67.8672 37.8805C68.4719 37.82 69.0683 37.6944 69.6461 37.506C70.156 37.3506 70.6374 37.1134 71.0713 36.8038C71.4513 36.5301 71.7805 36.1921 72.044 35.8051C72.293 35.4352 72.4809 35.0278 72.6006 34.5983C72.7243 34.16 72.7856 33.7065 72.7826 33.2511C72.7989 32.4347 72.5746 31.6315 72.1376 30.9416L72.096 30.9624ZM74.702 47.1028L74.3639 46.7543C74.2963 46.6763 74.2183 46.5879 74.135 46.4786C74.0159 46.3352 73.9064 46.184 73.8073 46.0261C73.6773 45.8284 73.4744 45.5059 73.1988 45.1314C72.8711 44.6477 72.5798 44.2108 72.3301 43.8206C72.0804 43.4305 71.8099 43.0456 71.5655 42.6659C71.321 42.2862 71.0453 41.9013 70.7228 41.5112C70.4003 41.121 70.0622 40.6893 69.6461 40.2004C69.2974 39.8023 68.9202 39.4303 68.5174 39.0872C68.1525 38.7631 67.7098 38.5391 67.2326 38.437C66.985 38.3789 66.7325 38.3441 66.4783 38.333C66.3223 38.333 66.1246 38.333 65.8802 38.333V41.2667C65.8802 42.0989 65.8802 42.7959 65.9114 43.3473C65.9426 43.8987 65.9426 44.3876 65.9634 44.7725C65.9641 45.1216 66.0613 45.4636 66.2443 45.7608C66.4574 46.0479 66.7332 46.2827 67.0505 46.4474C67.5635 46.7121 68.1326 46.8494 68.7098 46.848V47.108H60.3873V46.848C60.8105 46.7827 61.2267 46.6782 61.6305 46.5359C61.9955 46.4235 62.3205 46.2087 62.5668 45.9169C62.6703 45.7784 62.7414 45.6184 62.7748 45.4487C62.8298 45.2177 62.868 44.983 62.8893 44.7465C62.8893 44.4864 62.9413 44.2264 62.9569 43.9195C62.9725 43.6126 62.9569 43.3369 62.9569 43.0612C62.9569 42.7855 62.9569 42.4891 62.9569 42.0781C62.9569 41.6672 62.9569 41.2095 62.9829 40.7153C63.0089 40.2212 62.9829 39.7114 62.9829 39.1965V32.6477C62.9829 32.3356 62.9829 32.0183 62.9829 31.701C62.9829 31.3837 62.9569 31.0768 62.9309 30.7908C62.9096 30.5275 62.8661 30.2665 62.8008 30.0105C62.7675 29.8183 62.6831 29.6387 62.5564 29.4904C62.3217 29.2306 62.0218 29.0385 61.6877 28.9338C61.3002 28.8253 60.9057 28.7436 60.507 28.6893V28.4293H61.5473H63.5395H65.7709H67.6175C68.7722 28.4293 69.8021 28.4605 70.702 28.5333C71.5643 28.5901 72.4047 28.8295 73.1675 29.2355C73.9062 29.6134 74.539 30.1693 75.0089 30.8532C75.5043 31.6275 75.7495 32.5355 75.7111 33.454C75.7225 34.047 75.6017 34.6351 75.3574 35.1757C75.1323 35.6796 74.8167 36.138 74.4263 36.5281C74.0246 36.9273 73.5652 37.264 73.0635 37.5268C72.5401 37.8055 71.9936 38.0387 71.4302 38.2238V38.3018C71.7507 38.4798 72.0405 38.7081 72.2885 38.978C72.5765 39.288 72.8441 39.6164 73.0895 39.9611C73.5421 40.6217 74.0258 41.3291 74.5564 42.0937C75.0869 42.8584 75.5551 43.5294 75.9712 44.1119C76.4768 44.8721 77.1083 45.5406 77.8385 46.0885C78.4774 46.5141 79.2051 46.788 79.966 46.8896V47.1496L74.702 47.1028Z" fill="#164E63"/>
<path d="M85.1311 47.5398V46.4994L85.4848 46.4422C85.8657 46.3846 86.2378 46.2798 86.5927 46.1301C86.8855 46.0204 87.1477 45.842 87.3574 45.61C87.4194 45.523 87.462 45.4236 87.4822 45.3187C87.529 45.1366 87.5758 44.9182 87.6174 44.6685C87.6594 44.4119 87.6872 44.1531 87.7007 43.8935C87.7007 43.6126 87.7007 43.3421 87.7007 43.0768C87.7007 42.8115 87.7007 42.4839 87.7007 42.0833C87.7007 41.6828 87.7007 41.2147 87.7267 40.7205C87.7527 40.2264 87.7267 39.7166 87.7267 39.2121V32.6477C87.7267 32.346 87.7267 32.0287 87.7267 31.6958C87.7267 31.3629 87.7007 31.0716 87.6747 30.7908C87.6551 30.5468 87.6151 30.305 87.555 30.0677C87.5356 29.9528 87.4893 29.8441 87.4198 29.7504V29.7504C87.2518 29.5557 87.0316 29.4131 86.7852 29.3395C86.425 29.2496 86.0604 29.1784 85.6929 29.1263L85.334 29.0742V28.0339H100.387L102.405 32.9338L101.495 33.3863L101.287 33.1263C99.9295 31.4357 98.6499 30.2862 97.4796 29.7088C96.9945 29.537 96.4892 29.4286 95.9763 29.3863C95.0302 29.2772 94.0782 29.2268 93.1259 29.2355C92.7722 29.2355 92.4029 29.2355 92.0232 29.2719C91.8203 29.2719 91.6591 29.2979 91.5394 29.3135C91.5394 29.6204 91.4978 30.0781 91.4822 30.6711C91.4822 31.5294 91.4406 32.5385 91.4406 33.6672V35.3317C91.4406 35.7895 91.4406 36.1432 91.4406 36.4188C91.4406 36.6945 91.4406 36.8194 91.4406 36.939H91.5446C91.7995 36.939 92.0648 36.939 92.4185 36.913L93.4172 36.8506C93.6814 36.8346 93.944 36.7981 94.2026 36.7413C94.6148 36.655 95.0112 36.5059 95.3782 36.2992C95.6573 36.1353 95.9012 35.9179 96.096 35.6594C96.2952 35.381 96.4513 35.0741 96.5589 34.7491C96.6929 34.332 96.8058 33.9084 96.897 33.48L96.9646 33.1523H98.031V42.1718H96.9906L96.9126 41.8545C96.768 41.2908 96.5658 40.7435 96.3092 40.2212C96.1178 39.7745 95.8502 39.3644 95.5186 39.0092C95.2646 38.7903 94.9764 38.6146 94.6656 38.4891C94.269 38.3391 93.8511 38.2531 93.4276 38.2342L92.7878 38.1926C92.6213 38.1926 92.4549 38.1926 92.2676 38.1926H91.4562C91.4562 38.3694 91.4562 38.5879 91.4562 38.8376V41.9585C91.4562 42.2394 91.4562 42.4995 91.4562 42.7387C91.4562 42.9988 91.4562 43.2069 91.4562 43.3837C91.4562 43.9039 91.503 44.424 91.5498 44.9442C91.5523 45.2622 91.6326 45.5747 91.7839 45.8545C91.8099 45.9065 91.9659 46.0729 92.6161 46.1874C93.2262 46.2907 93.844 46.3412 94.4627 46.3382C94.754 46.3382 95.1285 46.3382 95.5758 46.3382C96.0441 46.3206 96.5111 46.2789 96.975 46.2134C97.4717 46.1329 97.9548 45.9841 98.4107 45.7712C98.8604 45.5745 99.2792 45.3134 99.6538 44.9962C100.096 44.6146 100.497 44.1874 100.85 43.7218C101.298 43.1273 101.708 42.5054 102.078 41.8597L102.239 41.584L103.233 41.8545L101.75 47.5398H85.1311Z" fill="#164E63"/>
<path d="M101.428 47.1236H85.5472V46.8636C85.9619 46.8011 86.3672 46.6875 86.754 46.5255C87.1079 46.3841 87.4246 46.1634 87.6799 45.8805C87.7783 45.7429 87.849 45.5874 87.8879 45.4227C87.9399 45.2251 87.9816 44.9962 88.0284 44.7361C88.0721 44.4656 88.1016 44.1931 88.1168 43.9195C88.1168 43.6334 88.1428 43.3525 88.1428 43.0768C88.1428 42.8011 88.1428 42.5047 88.1428 42.0937C88.1428 41.6828 88.1428 41.2251 88.1428 40.7309C88.1428 40.2368 88.1428 39.727 88.1428 39.2121V32.6477C88.1428 32.3356 88.1428 32.0183 88.1428 31.6854C88.1428 31.3525 88.1428 31.0456 88.0908 30.7543C88.0707 30.4875 88.0272 30.2229 87.9607 29.9637C87.9229 29.773 87.839 29.5944 87.7163 29.4436C87.4933 29.1953 87.2048 29.0151 86.884 28.9234C86.5069 28.8296 86.1249 28.7566 85.7397 28.7049V28.4449H100.065L101.828 32.7257L101.568 32.8558C100.181 31.1219 98.8667 29.9446 97.6252 29.3239C97.0983 29.1345 96.5495 29.0121 95.9919 28.9598C95.0266 28.851 94.0557 28.8006 93.0843 28.809C92.7202 28.809 92.3457 28.809 91.9555 28.8454C91.673 28.8588 91.3915 28.89 91.1129 28.939C91.0765 29.2147 91.0453 29.7869 91.0245 30.6503C91.0037 31.5138 90.9828 32.5177 90.9828 33.6568V35.3213C90.9828 35.7686 90.9828 36.138 90.9828 36.4188C90.9828 36.6997 90.9828 36.939 90.9828 37.0846V37.3707H91.503C91.7631 37.3707 92.0596 37.3707 92.3977 37.3707L93.412 37.3031C93.6952 37.2849 93.9768 37.2466 94.2546 37.1887C94.7107 37.0834 95.1476 36.9079 95.5498 36.6685C95.8777 36.4751 96.1641 36.2188 96.3925 35.9143C96.6193 35.5969 96.7949 35.2459 96.9126 34.874C97.0526 34.4455 97.1689 34.0096 97.2611 33.5684H97.5732V41.7556H97.2611C97.1303 41.1692 96.9403 40.5976 96.6942 40.0495C96.4757 39.5601 96.1728 39.1129 95.7995 38.7283C95.5024 38.4744 95.1648 38.2722 94.8008 38.1301C94.3641 37.9648 93.9043 37.8683 93.438 37.8441L92.7878 37.8077C92.6179 37.8077 92.4445 37.8077 92.2676 37.8077H91.0713C91.0309 38.1529 91.0136 38.5004 91.0193 38.848V41.9689C91.0193 42.2446 91.0193 42.4891 91.0193 42.7595C91.0193 43.03 91.0193 43.2225 91.0193 43.3941C91.0193 43.9455 91.0661 44.4708 91.1077 44.9546C91.1235 45.3403 91.2266 45.7173 91.4094 46.0573C91.6992 46.3681 92.0982 46.5545 92.5225 46.5775C93.1566 46.6851 93.7988 46.7373 94.4419 46.7335C94.7384 46.7335 95.1129 46.7335 95.5706 46.7335C96.0529 46.7169 96.534 46.6735 97.0114 46.6035C97.5376 46.543 98.0525 46.4081 98.5407 46.203C99.0314 45.9918 99.4873 45.7077 99.8931 45.3603C100.36 44.9617 100.782 44.5135 101.152 44.0235C101.632 43.4093 102.071 42.7647 102.468 42.0937L102.754 42.1666L101.428 47.1236Z" fill="#164E63"/>
<path d="M112.751 47.5398V46.4994L113.121 46.4526C113.491 46.4141 113.857 46.3392 114.213 46.229C114.566 46.075 114.875 45.8354 115.113 45.532V45.532C115.155 45.4616 115.183 45.3839 115.196 45.3031C115.232 45.1054 115.269 44.887 115.29 44.6425C115.311 44.398 115.331 44.1223 115.342 43.8415C115.352 43.5606 115.342 43.2641 115.342 42.9988C115.342 42.5151 115.373 41.9585 115.383 41.2823C115.394 40.6061 115.383 39.8675 115.383 38.9884L115.139 38.5931L114.499 37.5528C114.244 37.1419 113.979 36.6841 113.667 36.19C113.355 35.6958 113.074 35.2069 112.777 34.7283L111.945 33.3915C111.695 32.991 111.477 32.6529 111.305 32.3928C110.972 31.8727 110.676 31.4253 110.405 31.0092C110.179 30.6527 109.921 30.3168 109.636 30.0053C109.414 29.7668 109.166 29.5539 108.897 29.3707C108.683 29.2327 108.434 29.157 108.179 29.1523H107.784V28.0235H116.512V29.0951L116.122 29.1211C115.872 29.1211 115.602 29.1627 115.368 29.1939C115.15 29.2227 114.936 29.2732 114.728 29.3447C114.582 29.3877 114.447 29.4623 114.333 29.5632C114.303 29.5931 114.281 29.6292 114.268 29.6688C114.254 29.7084 114.25 29.7505 114.255 29.7921C114.3 30.0889 114.412 30.3716 114.582 30.6191C114.827 31.0664 115.102 31.5294 115.363 31.9923C115.555 32.3044 115.784 32.6841 116.039 33.1211C116.294 33.558 116.559 34.0261 116.887 34.5151C117.214 35.004 117.511 35.4982 117.838 36.0339L118.4 36.9546L118.858 36.2472L119.857 34.6867L120.814 33.1731C121.11 32.6945 121.334 32.3148 121.49 32.0495C121.573 31.9143 121.667 31.753 121.766 31.5814C121.864 31.4097 121.958 31.2277 122.052 31.0352C122.137 30.8524 122.212 30.6649 122.275 30.4735C122.327 30.3335 122.355 30.1858 122.359 30.0365C122.369 29.9057 122.334 29.7754 122.26 29.6672C122.156 29.5528 122.025 29.4654 121.88 29.4123C121.678 29.3347 121.469 29.2772 121.256 29.2407L120.528 29.1263L120.169 29.0742V28.0339H127.295V29.0742L126.639 29.1211C126.252 29.1695 125.875 29.2784 125.521 29.4436C125.207 29.6044 124.918 29.8094 124.663 30.0521C124.37 30.3323 124.105 30.6407 123.872 30.9728C123.612 31.3421 123.326 31.7739 123.014 32.2576C122.811 32.5801 122.494 33.0326 122.14 33.5944L121.001 35.3421C120.621 35.9351 120.242 36.5229 119.872 37.0846L119.113 38.2706V43.3629C119.113 43.8571 119.113 44.3408 119.149 44.8037C119.139 45.072 119.196 45.3385 119.316 45.5788V45.5788C119.497 45.8604 119.774 46.0673 120.096 46.1613C120.476 46.2737 120.861 46.3657 121.251 46.437L121.594 46.4994V47.5398H112.751Z" fill="#164E63"/>
<path d="M125.355 29.069C125.004 29.2444 124.682 29.4705 124.398 29.74C124.083 30.0389 123.8 30.3702 123.555 30.7283C123.284 31.1081 122.998 31.5398 122.686 32.0235C122.478 32.3512 122.166 32.7986 121.818 33.3603C121.469 33.9221 121.063 34.5047 120.673 35.1132C120.283 35.7218 119.909 36.2992 119.545 36.8506L118.686 38.1458V43.3473C118.686 43.8675 118.686 44.3356 118.728 44.8141C118.721 45.1626 118.806 45.5068 118.972 45.8128C119.211 46.1757 119.57 46.4428 119.987 46.5671C120.379 46.6812 120.776 46.775 121.178 46.848V47.108H113.167V46.848C113.569 46.8083 113.964 46.7263 114.348 46.6035C114.771 46.4278 115.142 46.1466 115.425 45.7868C115.53 45.661 115.597 45.5075 115.617 45.3447C115.666 45.1129 115.701 44.8784 115.721 44.6425C115.747 44.3824 115.763 44.1223 115.773 43.8154C115.784 43.5086 115.773 43.2329 115.773 42.9572C115.773 42.4734 115.805 41.9169 115.81 41.2303C115.815 40.5437 115.81 39.7582 115.81 38.8064C115.773 38.7543 115.669 38.5879 115.498 38.2862C115.326 37.9845 115.113 37.6724 114.863 37.2459C114.614 36.8194 114.343 36.3876 114.031 35.8831C113.719 35.3785 113.433 34.8948 113.136 34.4162L112.351 33.1419C112.091 32.7257 111.877 32.3876 111.706 32.1276L110.79 30.7543C110.549 30.3761 110.276 30.0193 109.974 29.688C109.728 29.4242 109.452 29.1902 109.152 28.991C108.877 28.8122 108.559 28.7132 108.231 28.7049V28.4449H116.096V28.7049C115.841 28.7049 115.576 28.7465 115.321 28.783C115.073 28.8127 114.829 28.8685 114.593 28.9494C114.391 29.0153 114.206 29.1215 114.047 29.2615C113.979 29.3297 113.926 29.4111 113.891 29.5006C113.856 29.59 113.84 29.6857 113.844 29.7817C113.889 30.1521 114.017 30.5076 114.218 30.822C114.468 31.2797 114.738 31.7426 115.009 32.2108C115.201 32.5229 115.425 32.8974 115.685 33.3395C115.945 33.7817 116.231 34.2498 116.538 34.7387C116.845 35.2277 117.167 35.7374 117.485 36.2576C117.802 36.7777 118.104 37.2979 118.379 37.74C118.608 37.4071 118.9 36.991 119.212 36.4813L120.21 34.9208C120.548 34.4006 120.871 33.8805 121.173 33.4071C121.474 32.9338 121.693 32.5385 121.859 32.2628C121.948 32.1276 122.041 31.9663 122.145 31.7843C122.249 31.6022 122.348 31.4097 122.442 31.2121C122.536 31.0147 122.618 30.8114 122.686 30.6035C122.754 30.4202 122.791 30.2268 122.796 30.0313C122.809 29.798 122.734 29.5681 122.587 29.3863C122.445 29.2257 122.267 29.101 122.067 29.0222C121.838 28.9311 121.599 28.8649 121.355 28.8246C121.095 28.783 120.835 28.7413 120.606 28.7101V28.4501H126.598V28.7101C126.165 28.762 125.743 28.885 125.35 29.0742" fill="#164E63"/>
<path d="M141.63 47.6438C140.102 47.6624 138.58 47.4233 137.131 46.9364C135.853 46.5015 134.677 45.8093 133.677 44.9026C132.724 44.0227 131.975 42.9451 131.482 41.7452C130.968 40.4697 130.711 39.1049 130.728 37.7296C130.728 37.4071 130.728 37.0326 130.79 36.6217C130.844 36.1749 130.926 35.7319 131.035 35.2953C131.161 34.7956 131.323 34.3054 131.519 33.8285C131.741 33.2864 132.009 32.7644 132.32 32.268C132.718 31.6267 133.191 31.0348 133.729 30.5047C134.317 29.9205 134.984 29.4215 135.711 29.0222C136.519 28.5692 137.38 28.2197 138.275 27.9819C139.32 27.7212 140.393 27.5954 141.469 27.6074C142.419 27.5945 143.367 27.694 144.294 27.9039C144.985 28.0805 145.66 28.3154 146.312 28.6061C146.753 28.7853 147.177 29.0065 147.576 29.2667L147.789 29.4123C147.857 29.3499 147.935 29.2823 148.018 29.1991C148.101 29.1159 148.226 28.9754 148.335 28.8402C148.448 28.7067 148.553 28.566 148.647 28.4189L148.777 28.2316H149.703V34.848L148.663 34.9364L148.574 34.5983C148.362 33.8139 148.038 33.0641 147.612 32.372C147.199 31.7006 146.687 31.0955 146.093 30.5775C145.515 30.0684 144.853 29.6621 144.138 29.3759C143.408 29.083 142.629 28.9346 141.844 28.939C140.811 28.9139 139.789 29.1576 138.879 29.6464C138.004 30.1482 137.248 30.8331 136.663 31.6542C136.033 32.534 135.552 33.5109 135.238 34.5463C134.915 35.6212 134.752 36.7375 134.754 37.8597C134.749 39.0053 134.925 40.1444 135.274 41.2355C135.583 42.2194 136.074 43.1367 136.72 43.9403C137.334 44.692 138.1 45.3054 138.967 45.74C139.879 46.1824 140.882 46.4068 141.896 46.3954C142.708 46.4002 143.512 46.2428 144.262 45.9325C144.983 45.6403 145.652 45.2347 146.244 44.7309C146.824 44.2167 147.323 43.6168 147.721 42.952C148.106 42.3246 148.382 41.6371 148.538 40.9182L148.606 40.5853H149.682L149.594 47.1288H148.652L148.528 46.952C148.341 46.6832 148.136 46.4277 147.914 46.1874C147.841 46.1093 147.784 46.0573 147.742 46.0157L147.513 46.1613C147.116 46.4192 146.695 46.637 146.255 46.8115C145.618 47.0663 144.96 47.2647 144.288 47.4045C143.414 47.5852 142.523 47.6707 141.63 47.6594" fill="#164E63"/>
<path d="M148.97 34.4631C148.751 33.639 148.411 32.8519 147.961 32.1276C147.526 31.4203 146.988 30.7821 146.364 30.2342C145.746 29.6959 145.043 29.2651 144.283 28.9598C143.504 28.6502 142.672 28.493 141.833 28.4969C140.716 28.4763 139.614 28.7527 138.639 29.2979C137.708 29.8277 136.902 30.5536 136.278 31.4253C135.629 32.3374 135.139 33.352 134.827 34.4266C134.484 35.5389 134.309 36.6959 134.307 37.8597C134.292 39.0485 134.467 40.2321 134.827 41.3655C135.165 42.403 135.694 43.3681 136.387 44.2108C137.039 45.0088 137.853 45.6595 138.775 46.1197C139.746 46.5948 140.815 46.8337 141.896 46.8167C142.765 46.8166 143.625 46.6396 144.424 46.2966C145.182 45.9795 145.885 45.5421 146.504 45.0014C147.117 44.4667 147.644 43.8403 148.065 43.1444C148.474 42.4775 148.768 41.7458 148.933 40.9806H149.282L149.204 46.7023H148.897C148.694 46.4243 148.476 46.1585 148.242 45.9065C148.018 45.662 147.862 45.5424 147.773 45.5424C147.607 45.6137 147.45 45.7045 147.305 45.8128C146.927 46.047 146.528 46.2471 146.114 46.411C145.501 46.6565 144.867 46.848 144.221 46.9832C143.375 47.1552 142.514 47.2372 141.651 47.2277C140.17 47.2482 138.696 47.016 137.292 46.5411C136.068 46.1259 134.942 45.4638 133.984 44.5957C133.077 43.757 132.367 42.7287 131.903 41.584C131.41 40.3615 131.164 39.0531 131.18 37.7348C131.184 37.3872 131.205 37.04 131.243 36.6945C131.293 36.265 131.371 35.8393 131.477 35.4201C131.602 34.9404 131.758 34.4695 131.945 34.0105C132.155 33.4912 132.411 32.9916 132.71 32.5177C133.092 31.9059 133.544 31.3403 134.057 30.8324C134.621 30.2751 135.26 29.7989 135.955 29.4175C136.731 28.9899 137.558 28.6631 138.416 28.4449C139.426 28.1902 140.464 28.0678 141.506 28.0808C142.422 28.0666 143.337 28.1626 144.231 28.3668C144.889 28.5138 145.534 28.7121 146.161 28.9598C146.575 29.1329 146.974 29.3418 147.352 29.584C147.495 29.6993 147.652 29.7955 147.82 29.8701C147.894 29.8505 147.96 29.8109 148.013 29.7556C148.123 29.6677 148.228 29.5721 148.325 29.4696C148.439 29.3551 148.554 29.2251 148.673 29.0794C148.797 28.9369 148.91 28.7857 149.011 28.6269H149.282V34.437L148.97 34.4631Z" fill="#164E63"/>
<path d="M163.29 29.2667C163.29 29.3083 163.29 29.3811 163.264 29.4852C163.238 29.5892 163.264 29.7608 163.238 30.0053C163.212 30.2498 163.238 30.5255 163.201 30.926C163.201 31.519 163.17 32.2108 163.165 32.965C163.16 33.7192 163.165 34.437 163.165 35.1653V37.5944C163.685 37.5944 164.205 37.558 164.689 37.5112C165.264 37.4559 165.831 37.3355 166.379 37.1523C166.849 37.0145 167.292 36.7982 167.69 36.5125C168.362 36.0212 168.842 35.3113 169.048 34.5047C169.159 34.1014 169.215 33.685 169.214 33.2667C169.227 32.5311 169.025 31.8078 168.632 31.1861C168.205 30.5492 167.609 30.0446 166.91 29.7296C166.525 29.5544 166.119 29.4269 165.703 29.3499C165.254 29.2652 164.798 29.2234 164.34 29.2251C163.992 29.2251 163.706 29.2251 163.487 29.2511H163.29V29.2667ZM171.378 47.5398L171.258 47.4201C171.092 47.2537 170.978 47.134 170.905 47.0508C170.832 46.9676 170.749 46.874 170.66 46.7699C170.532 46.604 170.414 46.4303 170.307 46.2498C170.182 46.0625 169.984 45.7712 169.703 45.3655C169.422 44.9598 169.079 44.4344 168.829 44.0443C168.58 43.6542 168.309 43.2745 168.07 42.8948C167.831 42.5151 167.55 42.1457 167.238 41.766C166.926 41.3863 166.587 40.9442 166.197 40.4708C165.864 40.0868 165.503 39.7286 165.115 39.3993C164.805 39.1227 164.429 38.931 164.023 38.8428C163.801 38.7904 163.575 38.7591 163.347 38.7491H163.17V41.2407C163.17 42.0677 163.17 42.7699 163.17 43.3213C163.17 43.8727 163.206 44.3616 163.222 44.7465C163.22 45.018 163.294 45.2847 163.435 45.5164V45.5164C163.614 45.7367 163.84 45.9144 164.096 46.0365C164.552 46.2629 165.054 46.3805 165.563 46.3798H165.963V47.5398H156.84V46.4994L157.193 46.4422C157.592 46.3791 157.983 46.2799 158.364 46.1457C158.656 46.0593 158.916 45.8894 159.113 45.6568C159.176 45.5646 159.218 45.46 159.238 45.3499C159.288 45.1394 159.325 44.9256 159.347 44.7101C159.347 44.4604 159.394 44.19 159.409 43.8987C159.425 43.6074 159.409 43.3317 159.409 43.0664C159.409 42.8011 159.409 42.4734 159.409 42.0729C159.409 41.6724 159.409 41.2043 159.409 40.7101C159.409 40.216 159.409 39.7062 159.409 39.2017V32.6477C159.409 32.346 159.409 32.0339 159.409 31.7114C159.409 31.3993 159.409 31.1029 159.357 30.8324C159.339 30.5921 159.301 30.3537 159.243 30.1198C159.222 30.0053 159.176 29.8969 159.108 29.8025V29.8025C158.922 29.5967 158.685 29.4441 158.421 29.3603C158.052 29.2577 157.677 29.1795 157.297 29.1263L156.944 29.0742V28.0339H158.426H160.418H162.655H164.47C165.63 28.0339 166.681 28.0703 167.591 28.1432C168.512 28.2046 169.409 28.4598 170.223 28.8922C171.023 29.302 171.707 29.9045 172.215 30.6451C172.755 31.4819 173.026 32.464 172.991 33.4592C172.998 34.1144 172.865 34.7636 172.6 35.3629C172.342 35.9104 171.99 36.4086 171.56 36.835C171.128 37.2613 170.635 37.6223 170.098 37.9065C169.771 38.0802 169.434 38.2365 169.089 38.3746C169.208 38.4771 169.321 38.5865 169.427 38.7023C169.731 39.0299 170.013 39.3775 170.27 39.7426C170.728 40.4136 171.222 41.1262 171.737 41.8753C172.252 42.6243 172.73 43.3005 173.152 43.8935C173.627 44.6136 174.223 45.2455 174.915 45.7608C175.5 46.1527 176.168 46.4054 176.866 46.4994L177.219 46.5515V47.5918L171.378 47.5398Z" fill="#164E63"/>
<path d="M168.985 30.9624C168.518 30.2579 167.862 29.6991 167.092 29.3499C166.673 29.1601 166.233 29.0221 165.781 28.939C165.306 28.85 164.824 28.8065 164.34 28.809C163.976 28.809 163.685 28.809 163.456 28.809C163.227 28.809 163.061 28.8402 162.936 28.861C162.936 28.9598 162.9 29.0534 162.884 29.1315C162.862 29.229 162.848 29.3282 162.842 29.428C162.842 29.5528 162.842 29.7192 162.816 29.9481C162.79 30.177 162.816 30.4683 162.78 30.8688C162.78 31.4722 162.749 32.1588 162.738 32.9182C162.728 33.6776 162.738 34.411 162.738 35.1237V37.9689C163.4 37.9727 164.061 37.9432 164.72 37.8805C165.325 37.82 165.921 37.6944 166.499 37.506C167.009 37.3506 167.49 37.1134 167.924 36.8038C168.304 36.5301 168.633 36.1921 168.897 35.8051C169.148 35.4355 169.337 35.0281 169.459 34.5983C169.58 34.1595 169.641 33.7063 169.641 33.2511C169.655 32.4341 169.429 31.6309 168.991 30.9416L168.985 30.9624ZM171.56 47.1028C171.404 46.9468 171.29 46.8323 171.222 46.7543C171.154 46.6763 171.076 46.5879 170.988 46.4786C170.869 46.3362 170.761 46.1849 170.665 46.0261C170.535 45.8284 170.333 45.5059 170.052 45.1314C169.724 44.6477 169.433 44.2108 169.183 43.8206C168.933 43.4305 168.663 43.0456 168.418 42.6659C168.174 42.2862 167.898 41.9013 167.576 41.5112C167.253 41.121 166.915 40.6893 166.499 40.2004C166.15 39.8023 165.773 39.4303 165.37 39.0872C165.006 38.7621 164.563 38.538 164.085 38.437C163.838 38.3789 163.585 38.3441 163.331 38.333C163.18 38.333 162.978 38.333 162.738 38.333V41.2667C162.738 42.0989 162.738 42.7959 162.764 43.3473C162.79 43.8987 162.795 44.3876 162.816 44.7725C162.816 45.1224 162.915 45.4652 163.102 45.7608C163.312 46.0491 163.586 46.2842 163.903 46.4474C164.417 46.7105 164.986 46.8478 165.563 46.848V47.108H157.24V46.848C157.665 46.7821 158.083 46.6776 158.489 46.5359C158.851 46.4221 159.174 46.2074 159.42 45.9169C159.523 45.7784 159.594 45.6184 159.628 45.4487C159.685 45.2179 159.725 44.9832 159.747 44.7465C159.775 44.4864 159.796 44.2108 159.81 43.9195C159.81 43.623 159.836 43.3369 159.836 43.0612C159.836 42.7855 159.836 42.4891 159.836 42.0781C159.836 41.6672 159.836 41.2095 159.836 40.7153C159.836 40.2212 159.836 39.7114 159.836 39.1965V32.6477C159.836 32.3356 159.836 32.0183 159.836 31.701C159.836 31.3837 159.836 31.0768 159.779 30.7908C159.756 30.5279 159.715 30.2672 159.654 30.0105C159.617 29.8186 159.531 29.6395 159.404 29.4904C159.17 29.2295 158.87 29.0371 158.535 28.9338C158.148 28.8253 157.753 28.7436 157.355 28.6893V28.4293H158.421H160.418H162.65H164.465C165.625 28.4293 166.655 28.4605 167.55 28.5333C168.436 28.5765 169.302 28.8126 170.088 29.2251C170.829 29.6013 171.464 30.1575 171.935 30.8428C172.426 31.6188 172.669 32.5259 172.632 33.4436C172.642 34.036 172.523 34.6235 172.283 35.1653C172.054 35.6683 171.737 36.1264 171.347 36.5177C170.945 36.9169 170.486 37.2536 169.984 37.5164C169.461 37.796 168.914 38.0292 168.351 38.2134V38.2914C168.673 38.4667 168.963 38.6953 169.209 38.9676C169.497 39.2776 169.765 39.606 170.01 39.9507L171.477 42.0833C171.997 42.8428 172.476 43.519 172.892 44.1015C173.397 44.8617 174.029 45.5302 174.759 46.0781C175.389 46.4922 176.103 46.7606 176.85 46.8636V47.1236L171.56 47.1028Z" fill="#164E63"/>
<path d="M191.258 29.043C190.307 29.0173 189.37 29.2783 188.569 29.7921C187.798 30.3048 187.15 30.9815 186.671 31.7739C186.149 32.6477 185.772 33.5996 185.552 34.5931C185.312 35.6583 185.19 36.7468 185.188 37.8389C185.185 38.9487 185.32 40.0546 185.589 41.1314C185.826 42.1083 186.225 43.0384 186.769 43.8831C187.259 44.6427 187.913 45.2827 188.684 45.7556C189.485 46.2267 190.402 46.4662 191.331 46.4474C192.256 46.4692 193.164 46.2039 193.932 45.688C194.699 45.164 195.346 44.4832 195.831 43.6906C196.359 42.8143 196.748 41.8616 196.985 40.8662C197.243 39.8299 197.374 38.7662 197.375 37.6984C197.373 36.6564 197.242 35.6186 196.985 34.6087C196.745 33.6192 196.352 32.6732 195.82 31.8051C195.329 31.0108 194.675 30.33 193.901 29.8077C193.116 29.2961 192.195 29.0349 191.258 29.0586V29.043ZM191.232 47.6854C189.902 47.6919 188.583 47.4502 187.342 46.9728C186.145 46.5106 185.049 45.8198 184.117 44.939C183.185 44.0477 182.444 42.9772 181.937 41.792C181.394 40.5218 181.121 39.1526 181.136 37.7712C181.117 36.3405 181.402 34.922 181.974 33.61C182.505 32.416 183.277 31.3447 184.241 30.4631C185.211 29.5898 186.344 28.9179 187.576 28.4865C188.856 28.0236 190.209 27.7894 191.57 27.7947C192.987 27.7729 194.392 28.0493 195.695 28.6061C196.873 29.1158 197.934 29.859 198.816 30.7908C199.666 31.7003 200.332 32.7653 200.777 33.9273C201.225 35.1196 201.452 36.3833 201.448 37.6568C201.461 39.034 201.185 40.3986 200.637 41.662C200.116 42.8598 199.367 43.9446 198.431 44.8558C197.497 45.7593 196.392 46.4667 195.18 46.9364C193.929 47.4243 192.596 47.6714 191.253 47.6646" fill="#164E63"/>
<path d="M197.391 34.4891C197.143 33.458 196.732 32.473 196.174 31.571C195.656 30.7229 194.96 29.9972 194.135 29.4436C193.283 28.879 192.28 28.5869 191.258 28.6061C190.224 28.5794 189.206 28.8639 188.335 29.4228C187.514 29.9682 186.825 30.6896 186.317 31.5346C185.776 32.4536 185.389 33.4552 185.173 34.4995C184.924 35.5934 184.798 36.7118 184.798 37.8337C184.793 38.9803 184.931 40.123 185.209 41.2355C185.461 42.2565 185.877 43.2298 186.442 44.1171C186.969 44.9263 187.669 45.6085 188.491 46.1145C189.36 46.6264 190.354 46.8858 191.362 46.8636C192.372 46.8864 193.363 46.5976 194.202 46.0365C195.015 45.4718 195.7 44.7414 196.21 43.8935C196.766 42.9825 197.174 41.9886 197.417 40.9494C197.685 39.8811 197.821 38.7841 197.823 37.6828C197.82 36.6055 197.684 35.5327 197.417 34.4891H197.391ZM200.257 41.4956C199.756 42.6424 199.037 43.6811 198.14 44.5541C197.244 45.4224 196.183 46.1016 195.019 46.5515C192.599 47.4773 189.923 47.4773 187.503 46.5515C186.357 46.1108 185.309 45.4499 184.418 44.6061C183.528 43.7535 182.82 42.7289 182.338 41.5944C181.805 40.3847 181.531 39.0773 181.531 37.7556C181.511 36.3783 181.786 35.0125 182.338 33.7504C182.843 32.6078 183.58 31.5823 184.502 30.7387C185.433 29.9059 186.518 29.2627 187.695 28.8454C188.93 28.4013 190.233 28.1777 191.544 28.1848C192.904 28.1621 194.253 28.428 195.503 28.965C196.626 29.4467 197.637 30.155 198.473 31.0456C199.288 31.9216 199.924 32.9482 200.345 34.0677C200.774 35.2121 200.992 36.4244 200.99 37.6464C201.017 38.9665 200.767 40.2776 200.257 41.4956Z" fill="#164E63"/>
<path d="M207.232 47.5398V46.4994L207.586 46.4422C207.967 46.3846 208.339 46.2798 208.694 46.1301C208.987 46.0204 209.249 45.842 209.459 45.61C209.521 45.523 209.563 45.4236 209.583 45.3187C209.63 45.1366 209.677 44.9182 209.719 44.6685C209.761 44.4119 209.788 44.1531 209.802 43.8935C209.802 43.6126 209.802 43.3421 209.802 43.0768C209.802 42.8115 209.802 42.4839 209.802 42.0833C209.802 41.6828 209.802 41.2147 209.828 40.7205C209.854 40.2264 209.828 39.7166 209.828 39.2121V32.6477C209.828 32.346 209.828 32.0287 209.828 31.6958C209.828 31.3629 209.802 31.0716 209.776 30.7908C209.756 30.5468 209.716 30.305 209.656 30.0677C209.637 29.9528 209.591 29.8441 209.521 29.7504V29.7504C209.353 29.5557 209.133 29.4131 208.886 29.3395C208.526 29.2496 208.162 29.1784 207.794 29.1263L207.435 29.0742V28.0339H222.561L224.574 33.0118L223.669 33.4696L223.456 33.2043C222.839 32.4246 222.175 31.6829 221.469 30.9832C220.956 30.4608 220.362 30.0236 219.711 29.688C219.239 29.5158 218.745 29.4108 218.244 29.3759C217.37 29.2756 216.491 29.2287 215.612 29.2355H215.029H214.384L213.802 29.2615H213.719C213.719 29.3499 213.682 29.454 213.667 29.5736C213.651 29.6932 213.63 29.8805 213.615 30.0938C213.599 30.307 213.578 30.5723 213.563 30.8688C213.563 31.467 213.531 32.1328 213.526 32.8402C213.521 33.5476 213.526 34.2186 213.526 34.874V36.9286H213.578C213.849 36.9286 214.15 36.9286 214.478 36.9026L215.518 36.8402C215.805 36.8217 216.09 36.7853 216.371 36.7309C216.844 36.6421 217.299 36.477 217.719 36.242C218.011 36.0776 218.265 35.8523 218.463 35.5814C218.645 35.3116 218.776 35.0099 218.847 34.6919C218.931 34.333 219.009 33.9377 219.076 33.5164L219.134 33.1627H220.215V42.3538H219.175L219.097 42.0365C218.949 41.4588 218.756 40.8936 218.52 40.346C218.339 39.8681 218.057 39.4351 217.693 39.0768C217.415 38.8257 217.094 38.6266 216.746 38.4891C216.365 38.3494 215.965 38.2687 215.56 38.2498L214.899 38.2082H214.379H213.552V41.0066C213.552 41.5268 213.552 41.9377 213.552 42.333C213.552 42.7283 213.552 43.0976 213.552 43.3733C213.552 43.8935 213.599 44.4136 213.646 44.9338C213.648 45.2518 213.729 45.5643 213.88 45.8441C214.023 46.0351 214.227 46.1725 214.457 46.2342C214.946 46.3752 215.452 46.4505 215.961 46.4578H216.356V47.5398H207.232Z" fill="#164E63"/>
<path d="M223.815 32.9338C223.188 32.1432 222.512 31.3927 221.792 30.6867C221.245 30.1322 220.615 29.6671 219.924 29.3083C219.41 29.1204 218.873 29.0031 218.327 28.9598C217.436 28.8596 216.54 28.8127 215.643 28.8194H215.045L214.4 28.8454H213.812C213.63 28.8454 213.495 28.8454 213.412 28.8454C213.397 28.951 213.375 29.0553 213.344 29.1575C213.316 29.2774 213.295 29.399 213.282 29.5216C213.282 29.662 213.245 29.8389 213.23 30.0417C213.214 30.2446 213.193 30.5255 213.178 30.8376C213.178 31.441 213.147 32.1015 213.136 32.8194C213.126 33.5372 213.136 34.2186 213.136 34.8584V37.3239H213.604C213.88 37.3239 214.187 37.3239 214.525 37.3239L215.565 37.2563C215.871 37.2386 216.175 37.2003 216.476 37.1419C216.992 37.0479 217.491 36.8723 217.953 36.6217C218.294 36.4187 218.587 36.1435 218.811 35.8155C219.019 35.4981 219.167 35.1456 219.248 34.7751C219.336 34.4058 219.414 34.0053 219.482 33.5684H219.794V41.9325H219.503C219.35 41.335 219.15 40.7505 218.905 40.1848C218.693 39.6473 218.365 39.1638 217.942 38.7699C217.637 38.4908 217.285 38.2673 216.902 38.1093C216.482 37.9522 216.04 37.861 215.591 37.8389L214.915 37.7972H214.369H213.126V41.017C213.126 41.5008 213.126 41.9481 213.126 42.3538C213.126 42.7595 213.126 43.108 213.126 43.3941C213.126 43.9455 213.173 44.4708 213.219 44.9546C213.231 45.3402 213.333 45.7177 213.516 46.0573C213.711 46.3251 213.989 46.5208 214.306 46.6139C214.833 46.7702 215.38 46.8525 215.929 46.8584V47.1184H207.607V46.8584C208.021 46.7938 208.425 46.6821 208.814 46.5255C209.166 46.3808 209.48 46.1585 209.734 45.8753C209.835 45.7389 209.906 45.583 209.942 45.4175C209.989 45.2199 210.041 44.991 210.083 44.7309C210.127 44.4604 210.156 44.1878 210.171 43.9143C210.171 43.6282 210.197 43.3473 210.197 43.0716C210.197 42.7959 210.197 42.4995 210.197 42.0833C210.197 41.6672 210.197 41.2147 210.197 40.7257C210.197 40.2368 210.197 39.727 210.197 39.2069V32.6477C210.197 32.3356 210.197 32.0131 210.197 31.6854C210.197 31.3577 210.197 31.0456 210.145 30.7543C210.125 30.4875 210.081 30.223 210.015 29.9637C209.98 29.7722 209.896 29.5931 209.771 29.4436C209.547 29.1964 209.259 29.0163 208.938 28.9234C208.563 28.8295 208.183 28.7565 207.799 28.7049V28.4449H222.312L224.075 32.8038L223.815 32.9338Z" fill="#164E63"/>
<path d="M234.858 47.5398V46.4995L235.227 46.4526C235.643 46.4073 236.053 46.3255 236.455 46.2082C236.864 46.0672 237.225 45.8129 237.495 45.4747V45.4747C237.541 45.4083 237.57 45.3314 237.578 45.2511C237.623 45.0436 237.655 44.8333 237.672 44.6217C237.698 44.3876 237.713 44.1015 237.724 43.8363C237.734 43.571 237.724 43.2589 237.724 42.9936C237.724 42.7283 237.724 42.411 237.724 42.0261C237.724 41.6412 237.724 41.1887 237.75 40.7049C237.776 40.2212 237.75 39.7114 237.75 39.2069V29.5372H236.46H235.758C235.508 29.5372 235.238 29.5372 234.884 29.5372C234.377 29.5373 233.873 29.6091 233.386 29.7504C232.995 29.8767 232.639 30.0922 232.345 30.3798V30.3798C232.187 30.5227 232.046 30.6833 231.924 30.8584C231.737 31.1029 231.55 31.3785 231.362 31.6386C231.163 31.9231 230.979 32.2183 230.811 32.5229C230.652 32.8065 230.52 33.1042 230.416 33.4123L230.28 33.8077L229.386 33.5268L230.286 27.8051L230.723 27.8987C231.102 27.9819 231.466 28.0547 231.799 28.1016C232.267 28.1636 232.737 28.1966 233.209 28.2004C233.859 28.2004 234.452 28.2316 234.972 28.242C235.492 28.2524 235.971 28.242 236.47 28.242H241.349C241.87 28.242 242.39 28.242 242.847 28.242L244.351 28.216C244.871 28.216 245.474 28.216 246.119 28.216C246.568 28.2105 247.015 28.167 247.456 28.086C247.815 28.0079 248.189 27.9143 248.574 27.7947L249.027 27.6542L249.994 33.5372L249.063 33.8493L248.907 33.5008C248.777 33.2043 248.616 32.887 248.434 32.5645C248.252 32.242 248.059 31.9299 247.867 31.6438C247.674 31.3577 247.482 31.0924 247.3 30.848C247.169 30.6627 247.023 30.4887 246.863 30.3278V30.3278C246.585 30.0513 246.241 29.8492 245.864 29.74C245.366 29.6264 244.857 29.5671 244.345 29.5632C244.002 29.5632 243.721 29.5632 243.477 29.5632H242.769H241.474C241.474 29.9273 241.474 30.3746 241.474 30.9156C241.474 31.6334 241.474 32.4188 241.474 33.2459V43.3889C241.474 43.8831 241.474 44.3564 241.511 44.8037C241.504 45.0649 241.561 45.3238 241.677 45.558V45.558C241.883 45.863 242.194 46.0814 242.551 46.1718C242.96 46.2941 243.375 46.3948 243.794 46.4734L244.137 46.5359V47.5762L234.858 47.5398Z" fill="#164E63"/>
<path d="M249.313 33.3239C249.172 33.0118 249.011 32.6841 248.819 32.346C248.626 32.0079 248.434 31.6958 248.236 31.4045C248.039 31.1133 247.841 30.8376 247.648 30.5827C247.504 30.3819 247.34 30.1955 247.159 30.0261C246.829 29.7027 246.423 29.4667 245.979 29.3395C245.447 29.2128 244.902 29.1483 244.356 29.1471C244.03 29.1471 243.744 29.1471 243.498 29.1471H242.775H241.058C241.058 29.5788 241.058 30.1874 241.058 30.9104C241.058 31.6334 241.058 32.4292 241.058 33.2459V43.3889C241.058 43.9091 241.058 44.372 241.094 44.8298C241.072 45.2341 241.196 45.633 241.444 45.9537C241.691 46.2745 242.045 46.4958 242.442 46.5775C242.864 46.7046 243.293 46.8087 243.726 46.8896V47.1496H235.274V46.8896C235.713 46.8421 236.146 46.755 236.569 46.6295C237.05 46.4653 237.474 46.1676 237.791 45.7712C237.896 45.6488 237.963 45.4989 237.984 45.3395C238.033 45.1182 238.067 44.8941 238.088 44.6685C238.088 44.4188 238.135 44.1483 238.14 43.8519C238.145 43.5554 238.14 43.2693 238.14 42.9936C238.14 42.7179 238.14 42.4318 238.14 42.0365C238.14 41.6412 238.14 41.1939 238.166 40.7101C238.192 40.2264 238.166 39.727 238.166 39.2069V29.1263H236.455H235.742C235.487 29.1263 235.222 29.1263 234.868 29.1263C234.321 29.1266 233.776 29.2036 233.251 29.3551C232.808 29.5073 232.405 29.7561 232.07 30.0833C231.891 30.2393 231.729 30.4137 231.586 30.6035C231.409 30.8428 231.217 31.1237 231.019 31.3941C230.812 31.6903 230.621 31.9977 230.447 32.3148C230.275 32.6217 230.132 32.9438 230.02 33.2771L229.786 33.1991L230.561 28.268C230.962 28.3564 231.326 28.4241 231.664 28.4761C232.15 28.5401 232.64 28.5749 233.131 28.5801L234.894 28.6165H236.403H241.349C241.869 28.6165 242.39 28.6165 242.858 28.6165H244.361H246.124C246.599 28.6094 247.073 28.5607 247.539 28.4709C247.914 28.3911 248.299 28.2923 248.694 28.1744L249.526 33.2355L249.313 33.3239Z" fill="#164E63"/>
<path d="M41.0895 36.7153V40.5697C41.139 40.0246 41.139 39.4762 41.0895 38.9312C41.0895 38.1458 41.1676 37.4019 41.0895 36.6945" fill="#164E63"/>
<path d="M38.7333 24.965C35.1338 23.5034 31.784 23.6698 29.4329 25.1679C28.0772 25.979 26.9564 27.1295 26.1811 28.506C25.4057 29.8824 25.0027 31.4372 25.0116 33.017C25.0116 35.0976 26.3692 37.6984 29.4433 37.6984C31.7112 37.6984 31.4563 35.4357 30.2339 35.4357C29.0116 35.4357 29.2768 36.7881 29.2768 36.7881C27.9036 36.7881 26.4524 35.6282 26.4524 33.2251C26.4524 30.822 28.7411 29.1263 29.6461 29.5008C30.5512 29.8753 30.0259 30.978 30.0259 30.978C33.771 30.7439 32.9335 27.4097 32.9335 27.4097C33.4292 27.162 33.9831 27.0541 34.5356 27.0977C38.6344 27.5918 40.5694 30.4475 41.0896 34.7908L51.862 28.0859C43.7996 28.0859 40.7983 25.7817 38.7333 24.965Z" fill="#164E63"/>
<path d="M41.0531 28.0287V39.2017C41.0556 40.8494 40.9618 42.4959 40.7723 44.1327C40.5798 45.7244 40.2937 46.8375 39.914 47.4617C38.8055 49.2198 37.1658 50.579 35.2326 51.3421C33.205 52.1451 31.0415 52.5495 28.8607 52.5332C25.9222 52.5902 23.0113 51.9578 20.3614 50.6867C17.8926 49.4601 15.7405 47.68 14.0727 45.4851C12.2713 43.0947 10.9372 40.3859 10.1403 37.5008C9.20411 34.1402 8.74879 30.664 8.7879 27.1757C8.77154 23.8495 9.25191 20.5395 10.2131 17.3551C11.0908 14.3885 12.4681 11.5933 14.2859 9.08988C15.9978 6.74726 18.1896 4.79664 20.7151 3.36817C23.3139 1.92335 26.2465 1.18616 29.2196 1.23033C31.9616 1.18926 34.6834 1.70601 37.2196 2.74919C39.4346 3.65487 41.4312 5.02201 43.0765 6.75958C44.3987 8.20088 45.5282 9.80772 46.4367 11.5398C47.4666 13.4784 48.2378 15.5437 48.7306 17.6828H49.6513V1.88053H48.7098C48.351 2.61235 47.9243 3.30894 47.4354 3.96115C47.0089 4.54372 46.7436 4.83501 46.65 4.83501C46.1701 4.63207 45.7147 4.37557 45.2924 4.07038C44.1866 3.41894 43.0277 2.86213 41.8282 2.40588C40.0255 1.71847 38.1737 1.1673 36.2885 0.75699C33.8005 0.220551 31.26 -0.0341942 28.7151 -0.00243636C23.9574 -0.00243636 19.9088 0.691104 16.5694 2.07818C11.3736 4.14368 6.99147 7.84473 4.0857 12.6217C3.07654 14.2883 2.24494 16.0561 1.60456 17.8961C1.03935 19.518 0.621536 21.1875 0.356186 22.8844C0.132887 24.2606 0.0129164 25.6515 -0.00272142 27.0456C-0.0559828 30.8385 0.611223 34.607 1.96347 38.151C3.18979 41.341 5.11873 44.214 7.60715 46.5567C10.2016 48.9349 13.2856 50.7157 16.6422 51.7738C20.5684 53.0197 24.6691 53.6274 28.7879 53.5736C31.094 53.5707 33.3934 53.3266 35.6487 52.8453C37.7709 52.4117 39.8575 51.8188 41.8906 51.0716C43.5268 50.4724 45.1264 49.7776 46.6812 48.991C47.5456 48.5834 48.3709 48.0977 49.1468 47.5398V36.9546C49.1468 35.8467 49.1468 34.5879 49.2144 33.4748C49.1992 32.6183 49.3957 31.7714 49.7865 31.0092C50.2837 30.2842 51.0203 29.7575 51.8672 29.5216C52.7285 29.2412 53.6153 29.0461 54.5148 28.939V28.0339L41.0531 28.0287Z" fill="#164E63"/>
</svg>
