<svg width="250" height="67" viewBox="0 0 250 67" fill="none" xmlns="http://www.w3.org/2000/svg">
<path d="M93.1673 13.6069H79.379C78.4355 13.6069 77.6331 14.2923 77.4859 15.2238L71.9093 50.5806C71.7984 51.2782 72.3387 51.9073 73.0464 51.9073H79.629C80.5726 51.9073 81.375 51.2218 81.5222 50.2883L83.0262 40.752C83.1714 39.8185 83.9758 39.1331 84.9173 39.1331H89.2823C98.3649 39.1331 103.607 34.7379 104.976 26.0282C105.593 22.2177 105.002 19.2238 103.218 17.127C101.258 14.8246 97.7823 13.6069 93.1673 13.6069ZM94.7581 26.5202C94.004 31.4677 90.2238 31.4677 86.5686 31.4677H84.4879L85.9476 22.2278C86.0343 21.6694 86.5181 21.2581 87.0827 21.2581H88.0363C90.5262 21.2581 92.875 21.2581 94.0887 22.6774C94.8125 23.5242 95.0343 24.7823 94.7581 26.5202Z" fill="#164E63"/>
<path d="M134.383 26.3609H127.78C127.218 26.3609 126.732 26.7722 126.645 27.3306L126.353 29.1774L125.891 28.5081C124.462 26.4335 121.274 25.7399 118.093 25.7399C110.796 25.7399 104.565 31.2661 103.351 39.0181C102.72 42.8851 103.617 46.5827 105.81 49.1613C107.823 51.5323 110.702 52.5202 114.127 52.5202C120.006 52.5202 123.266 48.7399 123.266 48.7399L122.972 50.5746C122.861 51.2762 123.401 51.9052 124.105 51.9052H130.052C130.998 51.9052 131.796 51.2198 131.946 50.2863L135.514 27.6875C135.627 26.9919 135.089 26.3609 134.383 26.3609ZM125.179 39.2117C124.542 42.9839 121.548 45.5161 117.73 45.5161C115.813 45.5161 114.28 44.9012 113.296 43.7359C112.321 42.5786 111.95 40.9314 112.26 39.0968C112.855 35.3568 115.899 32.7419 119.659 32.7419C121.534 32.7419 123.058 33.3649 124.062 34.5403C125.069 35.7278 125.468 37.3851 125.179 39.2117Z" fill="#164E63"/>
<path d="M169.548 26.3609H162.913C162.28 26.3609 161.685 26.6754 161.327 27.2016L152.175 40.6814L148.296 27.7278C148.052 26.9173 147.304 26.3609 146.458 26.3609H139.937C139.145 26.3609 138.595 27.1351 138.847 27.881L146.155 49.3286L139.284 59.0282C138.744 59.7923 139.288 60.8427 140.222 60.8427H146.849C147.478 60.8427 148.067 60.5363 148.423 60.0202L170.492 28.1653C171.02 27.4032 170.478 26.3609 169.548 26.3609Z" fill="#164E63"/>
<path d="M191.516 13.6069H177.726C176.784 13.6069 175.982 14.2923 175.835 15.2238L170.258 50.5806C170.147 51.2782 170.688 51.9073 171.391 51.9073H178.468C179.125 51.9073 179.688 51.4274 179.79 50.7742L181.373 40.752C181.518 39.8185 182.323 39.1331 183.264 39.1331H187.627C196.712 39.1331 201.952 34.7379 203.323 26.0282C203.942 22.2177 203.347 19.2238 201.563 17.127C199.605 14.8246 196.131 13.6069 191.516 13.6069ZM193.107 26.5202C192.355 31.4677 188.575 31.4677 184.917 31.4677H182.839L184.3 22.2278C184.387 21.6694 184.867 21.2581 185.433 21.2581H186.387C188.875 21.2581 191.226 21.2581 192.44 22.6774C193.163 23.5242 193.383 24.7823 193.107 26.5202Z" fill="#164E63"/>
<path d="M232.73 26.3609H226.131C225.565 26.3609 225.083 26.7722 224.998 27.3306L224.706 29.1774L224.242 28.5081C222.812 26.4335 219.627 25.7399 216.446 25.7399C209.149 25.7399 202.919 31.2661 201.706 39.0181C201.077 42.8851 201.97 46.5827 204.163 49.1613C206.179 51.5323 209.054 52.5202 212.48 52.5202C218.359 52.5202 221.619 48.7399 221.619 48.7399L221.325 50.5746C221.214 51.2762 221.754 51.9052 222.462 51.9052H228.407C229.349 51.9052 230.151 51.2198 230.298 50.2863L233.869 27.6875C233.978 26.9919 233.437 26.3609 232.73 26.3609ZM223.526 39.2117C222.893 42.9839 219.895 45.5161 216.077 45.5161C214.163 45.5161 212.627 44.9012 211.643 43.7359C210.667 42.5786 210.3 40.9314 210.607 39.0968C211.206 35.3568 214.246 32.7419 218.006 32.7419C219.881 32.7419 221.405 33.3649 222.409 34.5403C223.419 35.7278 223.819 37.3851 223.526 39.2117Z" fill="#164E63"/>
<path d="M240.514 14.5766L234.855 50.5807C234.744 51.2782 235.284 51.9073 235.988 51.9073H241.677C242.623 51.9073 243.425 51.2218 243.571 50.2883L249.151 14.9335C249.262 14.2359 248.722 13.6048 248.018 13.6048H241.647C241.085 13.6069 240.601 14.0181 240.514 14.5766Z" fill="#164E63"/>
<path d="M14.6492 58.7782L15.7036 52.0806L13.3549 52.0262H2.13913L9.93348 2.60484C9.95768 2.45565 10.0363 2.31654 10.1512 2.21775C10.2661 2.11896 10.4133 2.06452 10.5665 2.06452H29.4778C35.7561 2.06452 40.0887 3.37097 42.3508 5.9496C43.4113 7.15928 44.0867 8.42339 44.4133 9.81452C44.7561 11.2742 44.7621 13.0181 44.4274 15.1452L44.4032 15.3004V16.6633L45.4637 17.2641C46.3569 17.7379 47.0665 18.2802 47.6109 18.9012C48.5182 19.9355 49.1049 21.25 49.3528 22.8085C49.6089 24.4113 49.5242 26.3186 49.1049 28.4778C48.621 30.9617 47.8387 33.125 46.7823 34.8952C45.8105 36.5262 44.5726 37.879 43.1028 38.9274C41.6996 39.9234 40.0323 40.6794 38.1472 41.1633C36.3206 41.6391 34.2379 41.879 31.9536 41.879H30.4819C29.4295 41.879 28.4073 42.2581 27.6049 42.9375C26.8004 43.6311 26.2682 44.5786 26.1049 45.6149L25.994 46.2177L24.1311 58.0222L24.0464 58.4556C24.0242 58.5927 23.9859 58.6613 23.9295 58.7077C23.879 58.75 23.8065 58.7782 23.7359 58.7782H14.6492Z" fill="#253B80"/>
<path d="M46.4677 15.4577C46.4113 15.8185 46.3468 16.1875 46.2742 16.5665C43.7802 29.371 35.248 33.7943 24.3508 33.7943H18.8024C17.4698 33.7943 16.3468 34.7621 16.1391 36.0766L13.2984 54.0927L12.4939 59.1996C12.3589 60.0625 13.0242 60.8407 13.8952 60.8407H23.7359C24.9012 60.8407 25.8911 59.9939 26.0746 58.8448L26.1714 58.3448L28.0242 46.5867L28.1431 45.9415C28.3246 44.7883 29.3165 43.9415 30.4818 43.9415H31.9536C41.4879 43.9415 48.9516 40.0706 51.1331 28.8689C52.0443 24.1895 51.5726 20.2823 49.1613 17.5343C48.4314 16.7056 47.5262 16.0181 46.4677 15.4577Z" fill="#164E63"/>
<path d="M43.8589 14.4173C43.4778 14.3065 43.0847 14.2056 42.6815 14.1149C42.2762 14.0262 41.8609 13.9476 41.4335 13.879C39.9375 13.6371 38.2984 13.5222 36.5424 13.5222H21.7198C21.3549 13.5222 21.0081 13.6048 20.6976 13.754C20.0141 14.0827 19.5061 14.7298 19.3831 15.5222L16.2299 35.4939L16.1391 36.0766C16.3468 34.7621 17.4698 33.7944 18.8024 33.7944H24.3508C35.248 33.7944 43.7803 29.369 46.2742 16.5665C46.3488 16.1875 46.4113 15.8185 46.4678 15.4577C45.8367 15.123 45.1532 14.8367 44.4174 14.5927C44.2359 14.5323 44.0484 14.4738 43.8589 14.4173Z" fill="#164E63"/>
<path d="M19.383 15.5222C19.506 14.7298 20.0141 14.0827 20.6976 13.756C21.0101 13.6069 21.3548 13.5242 21.7197 13.5242H36.5423C38.2984 13.5242 39.9375 13.6391 41.4334 13.881C41.8609 13.9496 42.2762 14.0282 42.6814 14.1169C43.0847 14.2077 43.4778 14.3085 43.8588 14.4194C44.0484 14.4758 44.2359 14.5343 44.4193 14.5927C45.1552 14.8367 45.8387 15.125 46.4697 15.4577C47.2117 10.7258 46.4637 7.50403 43.9052 4.58669C41.0847 1.375 35.9939 0 29.4798 0H10.5685C9.23788 0 8.1028 0.967742 7.89715 2.28427L0.0201388 52.2137C-0.135103 53.2016 0.626994 54.0927 1.62296 54.0927H13.2984L16.2298 35.4939L19.383 15.5222Z" fill="#164E63"/>
</svg>
