<?xml version="1.0" standalone="no"?>
<!DOCTYPE svg PUBLIC "-//W3C//DTD SVG 20010904//EN"
 "http://www.w3.org/TR/2001/REC-SVG-20010904/DTD/svg10.dtd">
<svg version="1.0" xmlns="http://www.w3.org/2000/svg"
 width="700.000000pt" height="700.000000pt" viewBox="0 0 700.000000 700.000000"
 preserveAspectRatio="xMidYMid meet">
<metadata>
Created by potrace 1.11, written by Peter Selinger 2001-2013
</metadata>
<g transform="translate(0.000000,700.000000) scale(0.100000,-0.100000)"
fill="#000000" stroke="none">
<path d="M4637 6724 c-1 -1 -44 -4 -96 -8 -52 -4 -115 -11 -140 -17 -25 -6
-55 -12 -65 -15 -26 -5 -146 -43 -171 -54 -11 -5 -58 -25 -105 -45 -127 -54
-310 -155 -730 -400 -96 -56 -267 -155 -380 -220 -231 -132 -210 -121 -423
-240 l-157 -88 -163 -2 c-164 -3 -183 -5 -317 -31 -223 -45 -471 -161 -664
-313 -74 -58 -256 -254 -312 -336 -130 -191 -230 -428 -260 -619 -3 -21 -8
-48 -11 -60 -3 -11 -7 -104 -8 -206 -4 -201 11 -316 59 -475 65 -218 195 -451
336 -604 31 -33 30 -43 -1 -71 -18 -16 -121 -155 -156 -210 -117 -184 -201
-415 -232 -635 -10 -74 -7 -395 4 -455 31 -160 59 -258 106 -370 229 -537 715
-901 1294 -969 79 -9 337 -7 405 3 223 35 430 119 775 315 22 13 58 34 80 46
22 13 180 104 350 203 290 168 547 315 640 367 89 49 133 74 194 109 l64 37
166 3 c174 4 186 6 316 32 186 38 377 119 548 234 234 157 422 372 545 621 69
140 107 264 151 484 10 52 8 399 -3 450 -3 17 -9 46 -13 65 -3 19 -7 40 -9 45
-1 6 -4 22 -7 36 -3 14 -21 74 -41 133 -62 186 -151 345 -283 507 l-61 76 32
34 c81 85 179 234 243 369 39 81 97 240 107 291 2 13 9 44 15 69 21 95 26 150
26 315 0 192 -6 250 -40 385 -66 266 -195 504 -379 704 -263 284 -636 469
-1011 501 -73 6 -214 12 -218 9z m201 -1021 c272 -70 461 -325 446 -603 -8
-151 -71 -288 -181 -391 -123 -115 -227 -156 -399 -158 -139 -2 -172 8 -361
115 -202 113 -797 456 -806 464 -7 6 27 28 208 130 17 9 143 82 281 162 303
176 439 248 519 275 73 25 208 28 293 6z m-2498 -1084 c65 -14 186 -77 555
-289 165 -95 319 -183 343 -197 24 -13 67 -39 97 -57 l55 -33 -323 -185 c-695
-400 -674 -390 -813 -396 -125 -5 -192 8 -295 60 -192 96 -321 303 -321 518 0
78 2 95 22 170 53 200 252 378 460 413 52 9 171 7 220 -4z m2481 -1089 c183
-35 357 -184 423 -362 43 -115 52 -214 30 -330 -27 -142 -138 -305 -259 -380
-139 -87 -332 -114 -475 -67 -53 17 -341 170 -460 244 -19 12 -57 34 -85 50
-27 15 -144 81 -258 147 -182 105 -206 122 -190 133 10 6 131 76 268 155 138
79 270 155 295 170 25 15 65 39 90 52 25 14 92 51 149 83 165 93 219 111 328
113 51 1 116 -3 144 -8z m-2436 -1104 c43 -16 219 -105 295 -151 14 -8 79 -46
145 -83 165 -94 526 -303 548 -316 9 -6 17 -13 17 -16 0 -3 -37 -25 -82 -50
-107 -59 -144 -80 -198 -111 -25 -15 -61 -36 -80 -47 -19 -11 -120 -69 -225
-129 -355 -203 -445 -243 -561 -245 -167 -3 -310 52 -427 166 -119 115 -184
274 -180 441 7 258 195 488 448 549 81 19 235 15 300 -8z"/>
</g>
</svg>
